<?xml version="1.0" standalone="no"?>
<!DOCTYPE svg PUBLIC "-//W3C//DTD SVG 20010904//EN"
 "http://www.w3.org/TR/2001/REC-SVG-20010904/DTD/svg10.dtd">
<svg version="1.0" xmlns="http://www.w3.org/2000/svg"
 width="711.000000pt" height="351.000000pt" viewBox="0 0 711.000000 351.000000"
 preserveAspectRatio="xMidYMid meet">

<g transform="translate(0.000000,351.000000) scale(0.100000,-0.100000)"
fill="#000000" stroke="none">
<path d="M2134 2524 c-41 -20 -68 -51 -83 -93 -12 -38 -14 -205 -2 -358 9
-121 19 -135 120 -154 89 -17 101 -31 101 -123 0 -54 -4 -79 -16 -90 -18 -19
-20 -19 -45 -6 -14 8 -19 21 -19 49 0 47 -24 71 -72 71 -60 0 -63 -14 -33
-141 11 -43 78 -79 147 -79 138 0 188 62 188 236 0 143 -29 176 -168 190 -42
4 -80 13 -88 21 -17 17 -20 233 -4 264 8 14 21 19 50 19 54 0 70 -25 70 -111
0 -77 2 -79 91 -79 l59 0 0 -216 c0 -202 1 -219 21 -254 58 -103 219 -85 258
29 6 19 11 103 12 190 1 86 5 183 9 216 5 40 8 -24 9 -190 1 -137 6 -270 9
-295 8 -48 21 -57 69 -45 l26 6 -5 227 c-2 125 -1 207 2 182 10 -71 30 -168
52 -257 20 -79 22 -83 49 -83 30 0 28 -4 55 110 9 41 23 92 30 113 8 20 14 45
14 55 0 9 9 44 20 77 l20 60 -3 -255 -2 -255 60 0 60 0 0 288 c0 223 3 287 13
287 9 0 12 -30 12 -117 0 -65 3 -169 7 -231 7 -122 11 -130 59 -118 l26 7 -7
137 c-3 75 -8 157 -10 182 l-4 45 13 -45 c15 -50 34 -144 43 -205 5 -38 19
-65 32 -65 20 1 33 26 51 101 11 46 28 109 38 139 l17 55 3 -183 2 -183 53 3
52 3 -4 268 c-3 242 -2 267 13 267 14 0 16 -29 16 -305 l0 -305 63 1 c34 0 92
3 130 8 37 4 67 3 67 -1 0 -4 22 -8 50 -8 l49 0 3 98 c2 69 6 91 12 77 6 -11
25 -41 43 -67 18 -26 33 -51 33 -54 0 -3 9 -19 21 -35 17 -24 25 -28 47 -22
14 3 35 15 46 25 11 10 23 18 28 18 4 0 8 7 8 15 0 8 -4 15 -10 15 -5 0 -10 4
-10 10 0 5 -19 37 -42 70 -82 117 -90 130 -74 130 30 0 84 36 112 75 29 40 29
42 32 202 3 134 1 167 -13 193 -40 77 -100 102 -235 98 l-95 -3 -3 -77 -3 -78
-174 0 c-165 0 -175 -1 -175 -19 0 -15 -7 -19 -32 -17 -28 1 -33 -3 -39 -29
-13 -55 -37 -169 -50 -234 -13 -68 -27 -63 -28 9 0 19 -8 79 -18 133 l-17 98
-75 -7 -76 -6 -2 27 c-2 37 -9 42 -83 49 l-65 6 -19 -82 c-10 -46 -24 -108
-31 -138 -8 -30 -19 -81 -26 -113 -15 -69 -29 -84 -29 -30 0 35 -22 199 -38
283 l-7 35 -82 3 -82 3 -3 37 -3 37 -55 0 -55 0 -7 -55 c-3 -30 -6 -164 -7
-297 l-1 -243 -27 -6 c-57 -15 -58 -12 -63 282 l-5 269 -38 0 -37 0 0 70 c0
88 -20 129 -84 173 -43 28 -56 32 -115 32 -39 0 -79 -7 -97 -16z m1910 -275
c32 -15 36 -33 36 -160 0 -122 -7 -138 -67 -146 l-42 -5 -3 153 c-2 85 -2 157
0 162 5 11 48 9 76 -4z m-165 -333 l-3 -215 -84 -3 c-48 -2 -87 1 -90 7 -4 6
-7 37 -7 70 l0 60 75 10 c66 9 75 13 78 32 7 47 -13 62 -86 65 l-67 3 -3 79
c-2 44 -1 85 2 93 4 9 30 13 97 13 l91 0 -3 -214z"/>
<path d="M5853 1954 c-13 -14 -23 -32 -23 -41 0 -17 38 -52 58 -53 6 0 12 -5
12 -10 0 -6 11 -16 25 -22 37 -17 14 -25 -58 -22 -34 1 -174 3 -312 4 -169 1
-240 5 -219 11 50 14 59 32 32 63 -21 23 -27 25 -58 17 -19 -5 -62 -16 -95
-24 -33 -8 -95 -25 -139 -36 -43 -12 -113 -24 -155 -26 -94 -6 -468 -15 -614
-15 l-108 0 38 -55 38 -55 233 0 232 0 0 -65 0 -65 60 0 60 0 0 65 0 65 395 0
395 0 0 -64 0 -64 208 -5 c214 -5 264 -13 334 -59 46 -31 63 -27 66 14 3 30
-1 38 -18 43 -21 7 -19 20 3 20 9 0 12 34 12 115 0 108 -1 115 -20 116 -24 0
-67 20 -155 70 -95 54 -190 104 -198 104 -4 0 -17 -12 -29 -26z"/>
<path d="M1460 1898 c-14 -6 -38 -16 -55 -23 -16 -7 -48 -21 -70 -31 -93 -42
-107 -44 -297 -44 l-188 0 0 -140 0 -141 203 6 c111 4 208 8 215 10 18 6 15
-6 -5 -21 -17 -12 -17 -14 -1 -41 26 -43 52 -57 71 -38 9 8 20 15 26 15 6 0
45 21 88 47 l78 46 107 1 108 1 0 73 0 72 131 0 132 0 -7 31 c-3 17 -6 42 -6
55 l0 24 -257 2 c-253 3 -257 3 -225 21 37 20 40 35 13 65 -20 24 -25 25 -61
10z"/>
<path d="M4742 1491 l-2 -46 20 25 c24 31 25 42 2 57 -17 10 -19 7 -20 -36z"/>
<path d="M2892 1424 c-20 -14 -22 -23 -22 -115 l0 -99 41 0 40 0 -23 -42 c-12
-24 -31 -54 -40 -67 -10 -13 -18 -38 -18 -56 0 -21 -6 -35 -16 -39 -15 -6 -15
-8 0 -25 25 -28 18 -93 -11 -106 -22 -9 -23 -15 -23 -122 0 -127 -1 -125 75
-99 33 12 46 12 85 0 25 -8 48 -14 53 -14 4 0 7 52 7 115 0 95 -3 115 -15 115
-21 0 -28 38 -23 132 3 74 8 89 38 137 30 48 35 52 44 37 6 -10 23 -37 38 -60
15 -22 28 -49 28 -58 0 -19 -7 -21 -82 -18 l-48 1 0 -45 0 -45 63 -3 c62 -3
62 -3 65 -35 3 -28 -1 -33 -22 -39 -26 -6 -26 -6 -26 -120 0 -112 0 -114 23
-113 12 0 38 6 57 13 29 11 42 10 78 -2 69 -23 72 -18 72 107 0 108 0 109 -25
115 -22 6 -25 11 -25 55 0 30 5 51 13 54 10 4 10 7 0 18 -7 7 -13 26 -13 41 0
16 -18 57 -40 92 -22 35 -40 66 -40 69 0 3 17 7 38 9 l37 3 3 95 c4 132 8 130
-202 130 -130 0 -166 -3 -184 -16z"/>
<path d="M3810 1275 c0 -95 2 -105 18 -105 10 0 28 -10 40 -23 21 -22 22 -33
22 -168 0 -157 -7 -181 -55 -193 -25 -6 -25 -8 -25 -106 l0 -100 165 0 165 0
0 98 0 98 -34 12 c-42 16 -46 28 -46 172 l1 115 34 -70 c19 -38 35 -74 35 -80
0 -5 9 -21 20 -35 11 -14 20 -33 20 -42 0 -15 9 -18 54 -18 l55 0 30 64 c17
35 31 68 31 73 0 5 7 18 15 29 13 17 14 9 15 -84 l0 -102 -35 -17 -35 -17 0
-98 0 -98 165 0 165 0 0 99 c0 97 0 99 -25 105 -14 4 -34 15 -45 26 -18 18
-20 34 -20 168 0 141 1 150 23 169 12 12 31 23 42 25 18 3 20 11 20 103 l0
100 -106 3 -107 3 -37 -58 c-21 -32 -49 -75 -64 -96 -14 -21 -30 -46 -36 -55
-5 -9 -24 -36 -41 -59 -26 -35 -33 -40 -38 -25 -3 9 -17 35 -30 57 -13 22 -42
76 -66 120 -63 120 -55 115 -182 115 l-108 0 0 -105z"/>
<path d="M2034 1350 c-74 -17 -130 -81 -163 -188 -40 -124 -21 -323 42 -435
60 -108 195 -163 339 -137 41 7 72 18 75 26 3 8 11 14 19 14 8 0 14 7 14 15 0
8 4 15 8 15 16 0 33 52 39 115 l6 61 -69 -4 c-38 -2 -71 -6 -73 -8 -2 -2 -6
-24 -9 -49 -5 -51 -46 -105 -79 -105 -36 0 -82 61 -94 125 -15 79 -6 365 13
394 20 33 49 37 70 11 14 -18 18 -40 18 -111 l0 -90 123 3 122 3 0 175 0 175
-85 0 -85 0 -3 -54 -3 -54 -21 43 c-32 63 -104 85 -204 60z"/>
<path d="M5000 1220 c0 -97 3 -120 14 -120 8 0 22 -7 30 -16 22 -22 22 -136 0
-155 -14 -11 -14 -13 0 -21 12 -7 16 -25 16 -73 0 -65 -14 -95 -46 -95 -11 0
-14 -23 -14 -120 0 -120 0 -120 24 -120 13 0 43 7 67 15 39 14 47 14 81 0 21
-8 50 -15 63 -15 l25 0 0 120 c0 94 -3 120 -13 120 -8 0 -21 8 -30 18 -14 16
-17 43 -17 168 0 103 4 154 12 162 12 12 134 17 162 6 12 -5 16 -20 16 -64 0
-68 -3 -70 -95 -70 l-64 0 3 -42 3 -43 63 -3 c78 -4 155 19 198 59 l32 30 0
147 0 147 -28 26 c-15 15 -49 34 -75 43 -63 21 -203 21 -256 0 -36 -14 -43
-14 -85 0 -88 30 -86 32 -86 -104z"/>
</g>
</svg>
